<?xml version="1.0" standalone="no"?>
<!DOCTYPE svg PUBLIC "-//W3C//DTD SVG 20010904//EN"
 "http://www.w3.org/TR/2001/REC-SVG-20010904/DTD/svg10.dtd">
<svg version="1.0" xmlns="http://www.w3.org/2000/svg"
 width="1753.639059pt" height="1731.905767pt" viewBox="0 0 1753.639059 1731.905767"
 preserveAspectRatio="xMidYMid meet">
<metadata>
Created by potrace 1.16, written by Peter Selinger 2001-2019
</metadata>
<g transform="translate(-0.133152,1774.935264) scale(0.100000,-0.100000)"
fill="#f00606" stroke="none">
<path d="M13940 17728 c-68 -34 -233 -201 -264 -268 -37 -78 -33 -118 24 -289
84 -254 88 -390 15 -539 -66 -132 -230 -272 -321 -272 -76 0 -113 71 -124 241
-11 181 -37 212 -179 217 -74 3 -96 0 -139 -18 -105 -45 -181 -167 -203 -322
-26 -180 33 -358 170 -512 91 -102 111 -152 111 -284 0 -53 -4 -124 -10 -157
-53 -335 -102 -1010 -140 -1955 -50 -1250 -87 -1718 -155 -1985 -28 -110 -102
-261 -158 -322 -75 -82 -132 -78 -304 20 -110 62 -170 82 -221 72 -19 -4 -86
-33 -148 -66 -167 -87 -206 -84 -374 32 -225 154 -391 346 -1400 1614 -793
998 -1186 1466 -1871 2225 -437 486 -554 629 -624 768 -50 99 -65 190 -65 385
0 279 -33 461 -115 634 -72 152 -148 248 -262 329 -124 89 -255 132 -428 141
-128 6 -219 -13 -342 -73 -122 -61 -233 -178 -233 -247 0 -73 63 -174 153
-247 72 -58 161 -104 309 -158 207 -76 241 -112 258 -276 11 -104 5 -248 -12
-306 -23 -78 -79 -107 -288 -145 -247 -44 -337 -76 -409 -141 -76 -68 -97
-142 -80 -276 23 -185 61 -213 349 -257 265 -41 364 -206 678 -1131 208 -614
493 -1255 1142 -2565 364 -735 540 -1100 540 -1119 0 -18 -69 -50 -161 -75
-123 -35 -183 -81 -234 -181 -63 -124 -92 -276 -105 -555 -17 -351 -19 -379
-38 -447 -36 -127 -55 -138 -204 -114 -164 27 -296 69 -789 251 l-156 58 -6
901 c-7 917 -14 1120 -44 1259 -30 145 -75 181 -213 174 -175 -10 -245 -76
-308 -292 -74 -250 -108 -567 -122 -1140 -10 -393 -23 -532 -53 -562 -11 -12
-39 -1 -183 70 -196 97 -471 245 -874 467 -157 87 -447 247 -645 355 -1524
836 -1748 973 -1806 1100 -13 28 -19 64 -19 118 -1 327 -251 620 -626 733 -78
24 -106 27 -234 27 -132 1 -152 -1 -226 -26 -156 -52 -293 -164 -334 -274 -32
-85 -45 -241 -31 -382 13 -140 40 -234 81 -286 16 -21 30 -42 30 -47 0 -24
-32 -80 -74 -126 -61 -70 -76 -101 -76 -164 0 -100 102 -269 195 -324 101 -59
236 -82 620 -109 325 -22 413 -48 561 -166 81 -64 401 -393 583 -599 597 -675
1619 -1936 2088 -2575 435 -594 704 -1119 758 -1479 19 -130 19 -181 0 -290
-26 -147 -105 -289 -217 -392 -130 -118 -394 -266 -583 -325 -129 -41 -483
-117 -735 -158 -751 -123 -1350 -180 -1980 -188 -694 -9 -806 11 -860 153 -28
77 -65 127 -152 210 -192 182 -496 325 -663 312 -197 -16 -533 -270 -652 -493
-36 -66 -38 -74 -36 -155 4 -207 113 -387 271 -443 56 -20 186 -23 245 -5 60
18 121 81 142 148 23 74 57 124 94 139 69 29 138 -45 162 -174 14 -75 5 -144
-26 -204 -69 -136 -215 -169 -392 -88 -124 57 -216 77 -351 77 -164 0 -265
-29 -347 -101 -81 -72 -116 -187 -79 -265 27 -57 178 -210 261 -264 151 -100
338 -145 558 -137 168 6 283 33 431 100 130 59 161 67 276 67 236 0 760 -110
2183 -460 1708 -419 2112 -550 2315 -750 98 -96 130 -176 165 -405 44 -284
155 -509 286 -576 68 -34 146 -22 195 33 67 73 90 175 98 430 9 289 14 296
179 239 240 -83 297 -153 352 -429 32 -158 58 -247 99 -337 43 -93 84 -138
162 -176 55 -27 76 -32 137 -32 121 -1 188 41 237 148 34 75 84 124 173 171
121 63 251 84 297 46 21 -17 21 -19 6 -84 -20 -87 -60 -199 -139 -393 -77
-190 -115 -308 -126 -400 -20 -167 36 -222 163 -159 85 42 151 99 366 315 284
284 363 334 557 349 57 5 115 16 132 24 62 33 64 85 4 163 -24 31 -33 52 -29
67 43 172 961 1286 2126 2581 673 749 1066 1164 1462 1546 789 761 1502 1379
2303 1994 414 318 702 555 960 790 174 158 226 195 279 195 35 0 47 -8 125
-84 92 -90 116 -106 154 -106 58 0 76 71 53 208 -42 244 -15 296 299 562 272
230 404 402 422 548 7 61 -22 130 -69 163 -74 53 -261 -3 -758 -226 -107 -48
-226 -101 -263 -116 l-68 -28 -35 76 c-91 199 -256 650 -290 791 -9 37 -16 96
-17 132 -1 54 3 73 26 110 79 132 92 202 84 440 -11 318 -85 575 -191 666 -57
49 -134 75 -256 86 -139 13 -150 22 -150 126 0 40 16 176 35 300 61 405 71
505 55 592 -16 90 -42 134 -129 221 -153 153 -225 157 -372 22 -73 -66 -104
-77 -131 -45 -54 60 -98 202 -268 852 -62 236 -326 1197 -440 1600 -111 393
-140 525 -140 637 0 77 19 136 75 227 88 146 121 231 155 393 73 352 32 793
-91 962 -15 22 -56 58 -89 81 -123 84 -189 98 -270 58z m-228 -1968 c39 -53
48 -146 58 -572 12 -538 34 -803 96 -1193 36 -227 52 -302 161 -742 l97 -391
-168 -579 c-281 -966 -393 -1274 -513 -1407 -58 -64 -181 -315 -289 -586 -42
-107 -141 -387 -219 -622 -77 -235 -144 -430 -147 -433 -3 -3 -4 13 -2 37 2
24 8 162 14 308 26 661 46 791 146 948 37 57 66 94 208 263 108 128 244 337
321 494 52 106 68 149 84 235 72 382 108 1427 81 2375 -14 491 -26 731 -61
1185 -34 433 -35 611 -6 667 20 37 30 42 81 40 29 -1 44 -9 58 -27z m-6061
-751 c353 -541 675 -996 1258 -1784 685 -926 1277 -1678 1647 -2090 327 -366
355 -424 278 -578 -72 -141 -191 -552 -290 -997 -53 -242 -199 -819 -217 -860
-14 -32 -15 -33 -16 -10 -2 69 55 671 109 1160 42 378 61 621 63 805 2 184 -3
199 -76 237 -85 43 -263 34 -344 -18 -81 -53 -110 -129 -198 -529 -32 -143
-60 -263 -64 -267 -3 -4 -44 100 -90 230 -153 432 -232 621 -488 1166 -265
565 -677 1378 -1018 2012 -310 573 -524 943 -752 1294 -249 384 -333 551 -333
660 0 39 6 53 37 89 20 24 50 52 67 62 l30 18 85 -127 c47 -70 187 -283 312
-473z m-5397 -3356 c0 -113 -14 -152 -67 -180 -44 -24 -371 -34 -347 -10 44
42 186 161 261 219 92 72 128 91 143 77 6 -5 10 -53 10 -106z m699 -376 c45
-30 147 -107 227 -171 398 -318 781 -594 1420 -1021 641 -429 894 -587 1465
-918 l370 -214 -1 -449 c-1 -643 -23 -794 -114 -794 -56 0 -143 91 -311 327
-217 304 -640 764 -1330 1448 -735 728 -1274 1218 -1620 1472 -185 136 -319
268 -319 313 0 10 10 30 22 45 33 42 88 32 191 -38z m8508 -903 c22 -23 24
-33 22 -116 -4 -162 -57 -421 -179 -878 -69 -257 -127 -445 -145 -470 -26 -36
10 286 87 785 83 539 124 705 172 705 10 0 29 -12 43 -26z m-2472 -549 c40
-52 53 -206 27 -320 -8 -33 -27 -98 -42 -145 l-27 -85 -9 40 c-11 48 -6 505 5
523 12 18 23 15 46 -13z m6611 -185 c165 -195 257 -316 292 -383 18 -36 18
-40 3 -63 -10 -15 -66 -49 -148 -88 -180 -87 -511 -312 -907 -617 -158 -121
-344 -254 -414 -294 l-49 -29 7 40 c21 111 99 431 125 511 38 117 62 164 101
197 37 31 42 31 104 10 75 -26 155 -15 222 31 77 53 159 166 243 334 40 78
207 436 237 509 8 17 16 32 18 32 3 0 77 -85 166 -190z m-6120 -1245 c-23
-227 -118 -846 -194 -1270 -78 -430 -112 -617 -141 -775 -19 -102 -60 -320
-90 -485 -164 -883 -435 -2267 -484 -2474 -11 -46 -23 -86 -27 -90 -12 -11 5
870 25 1319 50 1076 116 2171 171 2835 41 500 60 617 119 733 36 70 54 87 111
102 61 16 144 63 280 160 63 46 142 95 175 111 l60 29 3 -42 c2 -24 -1 -92 -8
-153z m-2204 106 c87 -33 369 -117 629 -187 138 -36 253 -69 257 -73 8 -7 -45
-1060 -67 -1333 -66 -821 -120 -1329 -255 -2403 -59 -478 -100 -809 -127
-1044 -5 -35 -13 -66 -20 -68 -28 -10 -81 151 -122 372 -155 835 -352 2643
-416 3810 -39 714 -40 837 -9 913 11 27 18 32 46 32 18 0 56 -9 84 -19z m6304
-261 c16 -40 8 -136 -13 -157 -9 -9 -19 -14 -23 -11 -8 9 -10 160 -2 181 11
25 24 21 38 -13z m-38 -388 c40 -45 124 -176 139 -219 14 -42 -5 -79 -90 -167
-98 -102 -229 -196 -272 -196 -19 0 -3 150 30 280 53 209 110 340 146 340 7 0
28 -17 47 -38z m-816 -960 c19 -12 34 -50 34 -85 0 -39 -35 -92 -101 -152 -83
-76 -219 -157 -219 -130 0 19 66 171 96 221 66 111 149 174 190 146z m-764
-749 c20 -18 24 -67 8 -107 -17 -47 -151 -176 -182 -176 -13 0 -9 62 8 121 22
74 60 137 97 160 39 23 45 23 69 2z m-5657 -1618 c22 -21 25 -33 25 -94 0 -39
-9 -116 -19 -173 -11 -57 -31 -177 -45 -268 -14 -91 -35 -228 -47 -304 -24
-158 -49 -251 -79 -289 -35 -44 -72 -44 -242 3 -992 275 -1560 409 -2138 504
-391 64 -674 94 -1150 121 -527 29 -763 64 -790 114 -15 28 26 59 96 72 73 14
355 6 544 -16 513 -59 837 -78 1315 -78 518 0 888 27 1280 93 343 57 575 122
840 232 212 88 266 106 333 107 44 1 57 -3 77 -24z m620 -856 c31 -118 66
-351 71 -469 5 -108 3 -130 -13 -159 -24 -46 -38 -49 -58 -12 -37 72 -50 178
-50 411 0 298 15 365 50 229z m2205 -1049 c0 -40 -37 -135 -65 -168 -19 -21
-26 -24 -36 -15 -29 29 -6 106 52 176 37 45 49 47 49 7z"/>
</g>
</svg>
